<?xml version="1.0" encoding="UTF-8" standalone="no"?>
<svg
   viewBox="0 0 50 50"
   width="50px"
   height="50px"
   version="1.1"
   id="svg1552"
   sodipodi:docname="magnifying_glass_gray.svg"
   inkscape:version="1.2 (dc2aedaf03, 2022-05-15)"
   xmlns:inkscape="http://www.inkscape.org/namespaces/inkscape"
   xmlns:sodipodi="http://sodipodi.sourceforge.net/DTD/sodipodi-0.dtd"
   xmlns="http://www.w3.org/2000/svg"
   xmlns:svg="http://www.w3.org/2000/svg">
  <defs
     id="defs1556" />
  <sodipodi:namedview
     id="namedview1554"
     pagecolor="#ffffff"
     bordercolor="#000000"
     borderopacity="0.25"
     inkscape:showpageshadow="2"
     inkscape:pageopacity="0.0"
     inkscape:pagecheckerboard="0"
     inkscape:deskcolor="#d1d1d1"
     showgrid="false"
     inkscape:zoom="7.4246212"
     inkscape:cx="15.219632"
     inkscape:cy="28.014897"
     inkscape:window-width="1366"
     inkscape:window-height="705"
     inkscape:window-x="-8"
     inkscape:window-y="-8"
     inkscape:window-maximized="1"
     inkscape:current-layer="svg1552" />
  <path
     d="M 20.406877,0 C 9.7158181,0 1.0687679,8.6470502 1.0687679,19.338109 c 0,10.69106 8.6470502,19.338109 19.3381091,19.338109 3.816966,0 7.349548,-1.119762 10.344466,-3.02158 L 44.721705,49.625 49.556232,44.790473 35.76361,31.033399 c 2.479473,-3.252641 3.981376,-7.282896 3.981376,-11.69529 C 39.744986,8.6470502 31.097937,0 20.406877,0 Z m 0,4.5501433 c 8.189369,0 14.787965,6.5985957 14.787965,14.7879657 0,8.189369 -6.598596,14.787965 -14.787965,14.787965 -8.18937,0 -14.7879658,-6.598596 -14.7879658,-14.787965 0,-8.18937 6.5985958,-14.7879657 14.7879658,-14.7879657 z"
     id="path1550"
     style="fill:#b1b1b1;stroke-width:1.13754;fill-opacity:1" />
</svg>
